<svg xmlns="http://www.w3.org/2000/svg" viewBox="0 0 300.53 196.95"><defs><style>.a{fill:#231f20;}.b{fill:#fff;}</style></defs><path class="a" d="M17.19,197.41a7.64,7.64,0,0,1-3.48-.85l-.31-.16-.2-.28c-2.61-3.52,1-8.65,7.21-16.72l.55-.72,1.32-1.75a4.22,4.22,0,0,0-.71-.34l-.09,0-.08-.05a35,35,0,0,1-7.51-5.35,32.34,32.34,0,0,0-6.57-4.75L4.25,165l.81-1.43c1.84-3.27,5.93-5.69,6.11-5.79,2.58-1.48,5.93-2.2,10.25-2.2,4.84,0,10.39.94,15.76,1.85l1.08.19c5.36.91,10.42,1.77,14.53,1.77,3.18,0,5.32-.53,6.38-1.57a83.78,83.78,0,0,0,11.18-13.46A73,73,0,0,1,84.2,129.78c1.77-1.43,4.35-3.33,6.89-5.06,6.42-4.43,10.88-6,17.46-8.19,2.21-.73,4.83-1.61,7.87-2.74,6.67-2.48,13.88-4.76,21.52-7.16l.45-.14c8.47-2.67,17.23-5.43,25.29-8.51,8.33-3.19,19-7.65,27.38-13.92a54.4,54.4,0,0,0,5.31-4.5c8.14-7.93,14.12-18.26,19.91-28.25,10.92-18.85,22.22-38.34,48-41,4.22-.43,7.5-.65,11.33-.77A25.22,25.22,0,0,0,285.6,7l.77-.39c2.43-1.35,6.08-3.16,9.13-3.16h.12a5.76,5.76,0,0,1,3.7,1.36C301,6.37,301.76,9,300.63,16.67V17C299,27.94,292,33.73,284.84,38.72c-.58.43-1.19.84-1.81,1.26l-.43.3c-5.36,3.71-10.84,7.5-14.35,13-2.22,3.45-4.34,13.23-6.58,23.59l-.07.33c-2,9.09-4.22,19.39-7.29,29.78-7.52,25.51-17.48,41.89-30.45,50.09l-.1.06L216,161.26l.33-2.86c0-.06.65-5.43.94-8.57-1.39,3.37-2.91,6.71-4.54,10-9.56,18.27-22.65,29.67-40,34.89-4.87,1.85-13,1.88-13.33,1.88h-3.5l8.29-8.7c7.88-10.93,15.64-23.11,17.66-41.15-.41,1-.82,2.19-1.25,3.4l-.24.69c-2,5.74-4.15,11.69-8.92,14.61l-.14.09-1,.35-.18,0a81,81,0,0,1-8.53.46h-.24c-2.17,0-4.41-.07-6.84-.22-6.32-.43-12.83-1.27-18.58-2-8-1-16.37-2.09-24.35-2.09h-1.06a60.87,60.87,0,0,0-17.73,2.64C85.4,167,77.68,172,70.21,176.76l-.09.06C64.39,180.49,59,184,53.9,186.17c-2.83,1.19-5.24,2.36-7.57,3.49l-.37.19c-8.74,4.22-15.63,7.56-28.56,7.56Z" transform="translate(-2.14 -1.96)"/><path class="b" d="M295.62,5a4.18,4.18,0,0,1,2.72,1c1,1,1.93,2.87.79,10.59v.23c-1.49,10.35-8.3,15.9-15.16,20.71-.73.54-1.47,1-2.22,1.54-5.45,3.77-11.08,7.65-14.77,13.39-2.35,3.66-4.4,13.09-6.78,24.09-2,9.15-4.24,19.54-7.33,30-7.4,25.11-17.16,41.25-29.82,49.25l-5.25,2.81s.75-6.34,1-9.34c0-.43.08-.86.08-1.28.05-.71.13-1.39.13-2,.08-1.08-.28-1.4-.67-1.4a1,1,0,0,0-.82.47,143.05,143.05,0,0,1-6.16,14.09C202,177,189.18,188.18,172.18,193.26c-4.66,1.8-12.84,1.8-12.84,1.8l5.94-6.23C174,176.69,182.7,163,183.7,141.53a.22.22,0,0,0,0-.16.36.36,0,0,0-.29-.13.37.37,0,0,0-.2,0,1.7,1.7,0,0,0-.33.27c-1.68,2-2.74,5.2-4,8.74-1.95,5.5-4,11.19-8.29,13.84l-.68.24a78.33,78.33,0,0,1-8.39.45h-.22c-2.16,0-4.37-.07-6.76-.21-6.15-.42-12.41-1.22-18.47-2-8.12-1-16.54-2.11-24.54-2.11h-1a62.26,62.26,0,0,0-18.18,2.71c-7.56,2.43-15.37,7.45-22.92,12.3-5.7,3.66-11.08,7.12-16.08,9.29-3,1.26-5.53,2.5-8,3.7-8.56,4.14-15.31,7.41-27.9,7.41h-.21a6,6,0,0,1-2.79-.68c-1.93-2.6,1.43-7.37,7.2-14.92,1-1.38,2-2.67,2.74-3.67a6.27,6.27,0,0,0-2.24-1.45,34.3,34.3,0,0,1-7.19-5.12,32.86,32.86,0,0,0-6.93-5l-1.62-.73c1.66-3,5.56-5.23,5.56-5.23,2.33-1.34,5.43-2,9.5-2,5,0,11,1.07,16.46,2s10.64,1.81,14.91,1.81c3.63,0,6.07-.66,7.43-2a85.14,85.14,0,0,0,11.37-13.69A71.31,71.31,0,0,1,85.13,131c1.73-1.4,4.27-3.27,6.8-5,6.48-4.47,10.93-6,17.08-8,2.29-.76,4.88-1.63,7.93-2.76,6.76-2.52,14.12-4.83,21.9-7.28,8.51-2.68,17.3-5.45,25.37-8.53,8.41-3.22,19.17-7.73,27.74-14.12a54.94,54.94,0,0,0,5.46-4.63c8.28-8.07,14.32-18.49,20.16-28.57,10.74-18.53,21.89-37.69,46.89-40.27,4.22-.43,7.46-.65,11.22-.77a26.91,26.91,0,0,0,10.57-2.66L287,8c2-1.08,5.62-3,8.46-3h.12m0-3h-.16c-3.32,0-7,1.79-9.82,3.34l-.72.37A23.73,23.73,0,0,1,275.56,8c-3.83.12-7.15.35-11.4.78C237.59,11.55,225.58,32.28,215,50.56c-5.74,9.9-11.67,20.14-19.66,27.93a52.7,52.7,0,0,1-5.16,4.37c-8.25,6.16-18.77,10.57-27,13.72-8,3.06-16.75,5.81-25.2,8.47l-.44.14c-7.66,2.42-14.9,4.7-21.6,7.2-3,1.11-5.62,2-7.83,2.72-6.7,2.18-11.25,3.83-17.84,8.38-2.56,1.75-5.18,3.67-7,5.13a74.43,74.43,0,0,0-14.1,14.86l0,0,0,0a82.15,82.15,0,0,1-11,13.21c-.36.35-1.57,1.15-5.34,1.15-4,0-9-.85-14.31-1.76h-.09l-1-.16c-5.43-.93-11-1.88-16-1.88-4.59,0-8.18.78-11,2.4-.49.28-4.68,2.8-6.68,6.36l-1.61,2.85,3,1.35,1.52.68a30.61,30.61,0,0,1,6.21,4.51,37.48,37.48,0,0,0,7.14,5.2l-.24.31-.54.72C13.27,186.27,8.58,192.41,12,197l.4.56.61.31a9,9,0,0,0,4.18,1h.26c13.24,0,20.61-3.58,29.14-7.7L47,191c2.32-1.13,4.71-2.29,7.49-3.46,5.22-2.27,10.68-5.77,16.45-9.47L71,178c7.41-4.76,15-9.66,22.22-12a59.14,59.14,0,0,1,17.26-2.56h1c7.88,0,16.16,1.06,24.16,2.08,5.77.74,12.31,1.59,18.65,2,2.5.15,4.77.22,7,.22h.22a81.7,81.7,0,0,0,8.71-.47l.35,0,.33-.11.68-.24.3-.11.27-.17a15.41,15.41,0,0,0,4.56-4.43c-3.42,9.66-8.55,17.43-13.75,24.65l-5.8,6.08-4.83,5.07h7c.36,0,8.68,0,13.81-2,17.77-5.34,31.14-17,40.87-35.59.24-.47.47-.94.7-1.41l-.57,4.84,5.07-2.72,5.25-2.81.1,0,.09-.06c13.3-8.4,23.47-25.06,31.09-50.94,3.09-10.44,5.33-20.77,7.32-29.89l.07-.32c2.11-9.77,4.3-19.88,6.37-23.1,3.35-5.21,8.7-8.91,13.88-12.5l.07,0,.4-.27c.61-.41,1.23-.83,1.87-1.3,7.06-5,14.72-11.2,16.37-22.72l0-.21v-.23c1.06-7.26.58-10.79-1.72-13l-.06-.06-.06,0A7.2,7.2,0,0,0,295.62,2Z" transform="translate(-2.14 -1.96)"/></svg>